<mxfile host="app.diagrams.net" modified="2024-01-03T15:06:19.465Z" agent="Mozilla/5.0 (Windows NT 10.0; Win64; x64) AppleWebKit/537.36 (KHTML, like Gecko) Chrome/120.0.0.0 Safari/537.36 Edg/120.0.0.0" etag="B7tEHTlpWHS0aix9hMtR" version="22.1.16" type="github">
  <diagram name="Page-1" id="gS-0aVVuc6AGVWGVwyTO">
    <mxGraphModel dx="1386" dy="793" grid="1" gridSize="10" guides="1" tooltips="1" connect="1" arrows="1" fold="1" page="1" pageScale="1" pageWidth="850" pageHeight="1100" math="0" shadow="0">
      <root>
        <mxCell id="0" />
        <mxCell id="1" parent="0" />
        <mxCell id="DbQJdZ45rIFrBNTzAKnb-4" value="" style="ellipse;whiteSpace=wrap;html=1;" vertex="1" parent="1">
          <mxGeometry x="205" y="310" width="355" height="260" as="geometry" />
        </mxCell>
        <mxCell id="DbQJdZ45rIFrBNTzAKnb-2" value="" style="ellipse;whiteSpace=wrap;html=1;" vertex="1" parent="1">
          <mxGeometry x="210" y="340" width="210" height="210" as="geometry" />
        </mxCell>
        <mxCell id="DbQJdZ45rIFrBNTzAKnb-1" value="&lt;font style=&quot;font-size: 20px;&quot;&gt;Pod File&lt;/font&gt;" style="ellipse;whiteSpace=wrap;html=1;aspect=fixed;" vertex="1" parent="1">
          <mxGeometry x="210" y="400" width="120" height="120" as="geometry" />
        </mxCell>
        <mxCell id="DbQJdZ45rIFrBNTzAKnb-6" value="&lt;font style=&quot;font-size: 20px;&quot;&gt;Deployment&lt;br&gt;&lt;/font&gt;" style="text;html=1;strokeColor=none;fillColor=none;align=center;verticalAlign=middle;whiteSpace=wrap;rounded=0;" vertex="1" parent="1">
          <mxGeometry x="440" y="370" width="60" height="30" as="geometry" />
        </mxCell>
        <mxCell id="DbQJdZ45rIFrBNTzAKnb-7" value="&lt;font style=&quot;font-size: 20px;&quot;&gt;ReplicaSet&lt;br&gt;&lt;/font&gt;" style="text;html=1;strokeColor=none;fillColor=none;align=center;verticalAlign=middle;whiteSpace=wrap;rounded=0;" vertex="1" parent="1">
          <mxGeometry x="290" y="370" width="60" height="30" as="geometry" />
        </mxCell>
      </root>
    </mxGraphModel>
  </diagram>
</mxfile>
